<?xml version="1.0" encoding="utf-8"?>
<!-- Generator: Adobe Illustrator 26.3.1, SVG Export Plug-In . SVG Version: 6.00 Build 0)  -->
<svg version="1.1" id="Layer_1" xmlns="http://www.w3.org/2000/svg" xmlns:xlink="http://www.w3.org/1999/xlink" x="0px" y="0px"
	 viewBox="0 0 220 72" style="enable-background:new 0 0 220 72;" xml:space="preserve">
<style type="text/css">
	.st0{clip-path:url(#SVGID_00000010287514155569831950000011352123677252975273_);}
	.st1{fill:#FFFFFF;}
	.st2{fill-rule:evenodd;clip-rule:evenodd;fill:#303030;}
	.st3{clip-path:url(#SVGID_00000041264624841895500080000009105960837826742444_);}
	.st4{fill:#FDC32E;}
	.st5{fill:#3A7637;}
	.st6{fill:#FEC22E;}
	.st7{enable-background:new    ;}
	.st8{fill:#303030;}
</style>
<g>
	<defs>
		<rect id="SVGID_1_" width="220" height="72"/>
	</defs>
	<clipPath id="SVGID_00000085224710215831931210000015197164404710200733_">
		<use xlink:href="#SVGID_1_"  style="overflow:visible;"/>
	</clipPath>
	<g id="Artboard_8" style="clip-path:url(#SVGID_00000085224710215831931210000015197164404710200733_);">
		<g>
			<rect class="st1" width="220" height="72"/>
		</g>
		<g id="Group_1798" transform="translate(1 0.5)">
			<g id="Group_1793" transform="translate(80.349 13.5)">
				<g id="Group_1792">
					<g id="Path_15932">
						<path class="st2" d="M122,19.3l0.8-0.9l0.4-1.3l-0.8-1.2l-0.7,0.3l-0.2,0.6l-0.4,1.4l-0.3,1.1l0.4,1l0.4-0.3L122,19.3z"/>
					</g>
					<g id="Path_15933">
						<path class="st2" d="M57.1,16.5l0.5-0.1l0.5,0.1l0.3,0.1l0.2,0.4l0,0.4c0,0.3-0.1,0.6-0.1,0.8c-0.1,0.2-0.9,1.1-0.9,1.1
							l-1.3,1l-0.2-0.1l0.5-3L57.1,16.5z"/>
					</g>
					<g id="Path_15934">
						<path class="st2" d="M44.3,16.4l0.4-0.4l1.1,1.1l0.1,0.1l-0.7,1.3l-0.8,1.2l-0.8,1h-0.1l0-2L44,17L44.3,16.4z"/>
					</g>
					<g id="Path_15935">
						<path class="st2" d="M37.2,17.3l-1.3-1.4l-0.6,0.6l-0.7,1.9l-0.3,1.9l0.1,0.8"/>
					</g>
					<g id="Path_15936">
						<path class="st2" d="M17.2,33c-0.5,0.1-1,0-1.5-0.1c-0.5-0.1-1-0.4-1.4-0.6c-0.4-0.3-0.8-0.7-1.1-1.1
							c-0.3-0.4-0.5-0.9-0.7-1.4c-0.1-0.5-0.3-1-0.4-1.3s-0.2-0.7-0.3-1s-0.2-0.6-0.2-0.9s-0.1-0.5-0.2-0.8s-0.1-0.6-0.2-0.9
							s-0.2-0.7-0.2-1.1C10.4,24,9.7,24.2,9,24.4c-0.6,0.1-1.2,0.2-1.8,0.2c-0.7,0-1.3-0.1-1.9-0.4c-0.6-0.2-1.2-0.6-1.7-1
							c-0.5-0.4-1-0.9-1.5-1.4c-0.4-0.5-0.8-1.1-1.1-1.7c-0.3-0.6-0.5-1.2-0.7-1.8C0.1,17.8,0,17.2,0,16.6c0-1.1,0.2-2.3,0.6-3.3
							c0.4-1.1,0.9-2.1,1.6-3c0.7-0.9,1.4-1.8,2.3-2.5c0.9-0.7,1.8-1.4,2.8-1.9c1-0.5,2-0.9,3-1.2c1-0.3,2-0.4,3-0.4
							c0.9,0,1.9,0.2,2.8,0.5C17,5,17.7,5.5,18.4,6.1c0.7,0.8,1.2,1.7,1.5,2.6c0.4,1.3,0.6,2.6,0.6,3.9c0,0.7-0.1,1.3-0.3,1.9
							c-0.2,0.7-0.5,1.4-0.8,2c-0.3,0.7-0.7,1.3-1.2,2c-0.4,0.6-0.9,1.2-1.4,1.7c-0.5,0.5-1,1-1.6,1.4c-0.5,0.4-1,0.7-1.6,0.9
							c0.2,0.7,0.4,1.3,0.6,1.9s0.4,1.1,0.6,1.7s0.4,1,0.5,1.6s0.3,1,0.5,1.6s0.4,1.1,0.6,1.7S17,32.3,17.2,33L17.2,33z M12.4,19.5
							c0.4-0.2,0.9-0.5,1.4-0.8c0.5-0.3,0.9-0.6,1.4-1c0.4-0.3,0.9-0.7,1.3-1.1c0.4-0.4,0.7-0.8,1-1.3c0.3-0.5,0.5-0.9,0.7-1.5
							c0.2-0.5,0.3-1.1,0.3-1.6c0-0.7-0.1-1.3-0.2-1.9c-0.1-0.5-0.4-0.9-0.7-1.3c-0.3-0.3-0.6-0.6-1.1-0.7C16,8,15.6,8,15.1,8
							c-0.7,0-1.4,0.1-2.1,0.4c-0.8,0.3-1.5,0.6-2.2,1c-0.8,0.4-1.5,1-2.1,1.5c-0.7,0.5-1.3,1.2-1.8,1.8c-0.5,0.6-0.9,1.2-1.3,1.9
							c-0.3,0.6-0.5,1.2-0.5,1.9c0,0.5,0,1,0.1,1.4c0.1,0.5,0.2,1,0.3,1.5c0.1,0.4,0.3,0.8,0.6,1.1C6.3,20.8,6.7,21,7,21
							c0.4,0,0.9,0,1.3-0.1c0.4,0,0.7-0.1,1-0.1c0.3,0,0.6-0.1,0.9-0.2v0l-0.1-0.3c0-0.2-0.1-0.5-0.1-0.8s-0.1-0.7-0.1-1.1
							c0-0.4-0.1-0.7-0.1-1.1c0-0.3,0-0.6,0.1-0.9c0.1-0.2,0.2-0.3,0.3-0.3c0.3,0,0.6,0.3,1,0.8C11.7,17.7,12.1,18.6,12.4,19.5
							L12.4,19.5z M37.1,17.3L35.9,16c0,0-0.1,0.1-0.2,0.2s-0.3,0.3-0.6,0.6l-0.8,0.8c-0.3,0.3-0.6,0.6-0.9,0.9s-0.7,0.6-1,0.9
							s-0.6,0.6-0.9,0.8c-0.2,0.2-0.5,0.4-0.8,0.6c-0.2,0.1-0.3,0.2-0.5,0.2c-0.1,0-0.2,0-0.3-0.1c-0.1-0.1-0.1-0.2-0.1-0.3
							c0-0.3,0-0.6,0.1-0.8c0.1-0.3,0.1-0.6,0.2-0.9s0.1-0.6,0.2-0.9s1.9-3.7,1.9-3.9c0-0.1-0.1-0.3-0.2-0.4
							c-0.2-0.2-0.3-0.3-0.4-0.5c-0.1-0.1-0.2-0.3-0.3-0.4c-0.1-0.1-0.2-0.3-0.3-0.5c-0.1-0.2-0.2-0.4-0.3-0.6
							c-0.1-0.2-0.2-0.3-0.3-0.4c-0.1-0.1-0.3-0.2-0.5-0.2c-0.2,0-0.3,0.1-0.5,0.2c-0.2,0.2-0.4,0.5-0.5,0.8
							c-0.2,0.3-2.2,3.9-2.4,4.3s-0.5,0.9-0.7,1.4s-0.5,0.9-0.8,1.3c-0.2,0.4-0.5,0.7-0.8,1c-0.2,0.2-0.5,0.4-0.7,0.6
							c-0.1,0-0.1-0.1-0.1-0.1c0-0.1-0.1-0.2-0.1-0.3c0-0.1,0-0.2,0-0.3v-0.3c0-0.3,0.1-0.5,0.2-0.8c0.1-0.3,0.2-0.7,0.4-1.1
							s0.3-0.8,0.4-1.2s1.3-2.5,1.3-2.7L23,11.6c-0.1,0-0.2,0.1-0.3,0.1c-0.1,0-0.2,0.1-0.3,0.2c-0.1,0.1-0.2,0.2-0.3,0.3
							c-0.1,0.1-0.2,0.3-0.2,0.4c-0.1,0.5-1.4,2.7-1.6,3.1s-0.5,0.9-0.7,1.3c-0.2,0.4-0.4,0.9-0.6,1.3c-0.2,0.4-0.3,0.9-0.3,1.4
							c0,0.6,0.1,1.1,0.4,1.6c0.3,0.5,0.8,0.9,1.3,1.1c0.2,0.1,0.4,0.2,0.7,0.3s0.5,0.2,0.8,0.4c0.3,0.1,0.6,0.2,0.9,0.3
							c0.3,0.1,0.6,0.1,0.9,0.1c0.3,0,0.6-0.1,0.9-0.2c0.3-0.1,0.5-0.3,0.8-0.5c0.2-0.2,0.5-0.4,0.7-0.6c0.2-0.2,0.4-0.4,0.5-0.6
							c0.1,0.8,0.5,1.6,1.2,2.1c0.3,0.3,0.7,0.5,1.1,0.6c0.4,0.1,0.9,0.2,1.3,0.2c0.3,0,0.5-0.1,0.7-0.2c0.3-0.1,0.5-0.3,0.8-0.5
							c0.3-0.2,0.5-0.4,0.7-0.6c0.2-0.2,0.4-0.4,0.6-0.6c0.1-0.1,0.2-0.3,0.4-0.5s0.4-0.5,0.6-0.7s0.4-0.6,0.7-0.9s0.5-0.6,0.7-1
							C35.9,19,36.5,18.2,37.1,17.3L37.1,17.3z M39.6,6.7c0.2,0,0.4,0,0.6,0l0.5,0c0.2,0,0.4,0,0.5,0c0.2,0,0.5,0.1,0.6,0.2
							c0.2,0.2,0.4,0.4,0.6,0.6c0.2,0.3,0.3,0.6,0.5,0.9c0.1,0.4,0.2,0.8,0.2,1.2c0,0.3-0.1,0.5-0.2,0.8c-0.2,0.2-0.5,0.3-0.9,0.3
							c-0.4,0-0.8-0.1-1.1-0.2c-0.3-0.1-0.6-0.3-0.9-0.5c-0.3-0.2-0.5-0.5-0.6-0.7c-0.2-0.3-0.2-0.6-0.2-0.9c0-0.3,0.1-0.6,0.1-0.8
							C39.3,7.2,39.5,7,39.6,6.7L39.6,6.7z M44.7,16c0.1,0.2,0.3,0.3,0.4,0.5c0.1,0.1,0.3,0.3,0.4,0.4c0.1,0.1,0.2,0.2,0.3,0.2
							s0.1,0.1,0.1,0.1c-0.2,0.4-0.4,0.8-0.7,1.2c-0.3,0.5-0.6,1-1,1.5c-0.4,0.5-0.8,1.1-1.3,1.6c-0.4,0.5-0.9,1-1.3,1.5
							c-0.4,0.4-0.8,0.7-1.2,1.1c-0.3,0.2-0.6,0.4-1,0.4c-0.2,0-0.5-0.1-0.7-0.1c-0.3-0.1-0.6-0.2-0.9-0.3s-0.6-0.3-0.9-0.4
							s-0.6-0.3-0.9-0.5c-0.2-0.1-0.5-0.3-0.7-0.4c-0.1-0.1-0.3-0.2-0.4-0.3c-0.2-0.3-0.3-0.5-0.4-0.8c0-0.1-0.1-0.3-0.1-0.4
							c0-0.2,0-0.4,0-0.6c0-0.6,0.1-1.1,0.2-1.7c0.1-0.7,0.3-1.3,0.6-2c0.2-0.7,0.5-1.3,0.8-2c0.3-0.6,0.6-1.2,0.9-1.8
							c0.3-0.5,0.6-0.9,1-1.3c0.2-0.3,0.5-0.4,0.9-0.5c0.2,0,0.3,0.1,0.5,0.2c0.5,0.3,0.8,0.8,1.1,1.2c0.1,0.2,0.2,0.5,0.3,0.7
							c0.1,0.3,0.2,0.5,0.3,0.8c-0.2,0.2-0.4,0.5-0.5,0.7c-0.2,0.3-0.4,0.6-0.5,1s-0.4,0.7-0.5,1.1S39,18,38.9,18.4
							c-0.1,0.4-0.2,0.8-0.3,1.2c-0.1,0.3-0.1,0.7-0.1,1c0,0.2,0,0.4,0.1,0.6c0.5-0.3,1-0.6,1.5-1c0.6-0.4,1.1-0.9,1.7-1.4
							c0.6-0.5,1.1-1,1.6-1.5C43.9,16.9,44.3,16.4,44.7,16L44.7,16z M58.1,18.6c0.3-0.3,0.4-0.7,0.5-1c0-0.2,0-0.3,0-0.5
							c0-0.2-0.1-0.3-0.2-0.4c0-0.1-0.1-0.1-0.2-0.1c-0.1,0-0.2-0.1-0.3-0.1c-0.1,0-0.3,0-0.4,0c-0.1,0-0.3,0-0.4,0.1
							c-1.1,0.8-2.1,1.5-2.9,2c-0.8,0.5-1.6,1-2.2,1.3c-0.6,0.3-1.2,0.6-1.8,0.8c-0.5,0.2-1,0.4-1.5,0.5c-0.1-0.2-0.3-0.3-0.3-0.5
							c-0.1-0.2-0.2-0.4-0.2-0.6c-0.1-0.2-0.1-0.4-0.1-0.7c0-0.2,0-0.4,0-0.7c0-0.4,0.1-0.9,0.2-1.3c0.2-0.4,0.4-0.9,0.6-1.3
							c0.3-0.4,0.6-0.8,0.9-1.1c0.3-0.3,0.7-0.6,1.1-0.8l1.4,2c0.1,0.1,0.1,0.2,0.2,0.3c0.1,0.1,0.2,0.2,0.3,0.2
							c0.3-0.3,0.5-0.5,0.8-0.8c0.2-0.2,0.5-0.5,0.6-0.8c0.2-0.3,0.3-0.6,0.4-0.9c0.1-0.3,0.2-0.7,0.2-1.1c0-0.4-0.1-0.8-0.2-1.2
							c-0.1-0.4-0.3-0.7-0.6-1c-0.3-0.3-0.6-0.5-0.9-0.7c-0.4-0.2-0.8-0.3-1.2-0.3c-0.4,0-0.8,0.1-1.2,0.2c-0.4,0.2-0.9,0.4-1.2,0.6
							c-0.4,0.3-0.8,0.5-1.2,0.8c-0.4,0.3-0.7,0.6-1,0.8c-0.6,0.5-1.1,1.1-1.5,1.7c-0.4,0.5-0.8,1.1-1.1,1.8c-0.3,0.6-0.5,1.3-0.7,2
							c-0.2,0.7-0.2,1.5-0.2,2.2c0,0.3,0,0.7,0.1,1c0.1,0.3,0.2,0.5,0.4,0.8c0.2,0.3,0.4,0.5,0.7,0.7c0.3,0.2,0.6,0.5,1,0.7
							c0.4,0.3,0.8,0.5,1.2,0.7c0.4,0.2,0.8,0.3,1.2,0.4c0.3,0.1,0.6,0.1,0.9,0c0.4-0.1,0.7-0.2,1.1-0.3c0.4-0.2,0.7-0.3,1.1-0.5
							c0.4-0.2,0.7-0.4,1-0.6s0.6-0.4,0.9-0.6s0.5-0.3,0.7-0.4c0.2-0.1,0.5-0.3,0.9-0.6s0.8-0.5,1.2-0.8s0.8-0.6,1.2-1
							C57.4,19.4,57.8,19,58.1,18.6L58.1,18.6z M65.7,0c-0.4,1.3-0.9,2.5-1.3,3.8C64,5,63.7,6.3,63.3,7.5c-0.4,1.2-0.7,2.3-0.9,3.4
							s-0.5,2.1-0.6,3c0.3-0.3,0.6-0.7,0.8-0.9c0.3-0.3,0.6-0.5,0.9-0.8c0.3-0.2,0.7-0.4,1.1-0.5c0.4-0.1,0.9-0.2,1.4-0.2
							c0.3,0,0.6,0,0.8,0.1c0.3,0.1,0.5,0.2,0.7,0.4c0.2,0.2,0.4,0.5,0.5,0.8c0.1,0.4,0.2,0.7,0.2,1.1c0,0.6-0.1,1.2-0.4,1.7
							c-0.3,0.5-0.6,0.9-1,1.3c-0.4,0.4-0.9,0.7-1.4,0.9c-0.5,0.2-1,0.4-1.5,0.5c0.3,0.5,0.6,0.9,0.9,1.3c0.2,0.3,0.5,0.7,0.8,1
							c0.2,0.2,0.5,0.4,0.8,0.6c0.3,0.1,0.5,0.2,0.8,0.2c0.4,0,0.8-0.1,1.2-0.3c0.4-0.2,0.8-0.5,1.2-0.9c0.4-0.4,0.8-0.8,1.2-1.2
							c0.4-0.4,0.7-0.9,1-1.3s0.6-0.8,0.8-1.1s0.5-0.6,0.6-0.8l1,1.4c-0.3,0.5-0.5,0.9-0.9,1.5s-0.7,1.1-1,1.7s-0.8,1.1-1.2,1.7
							c-0.4,0.5-0.9,1-1.3,1.4c-0.4,0.4-0.9,0.7-1.5,1c-0.5,0.2-1.1,0.4-1.6,0.4c-0.6,0-1.2-0.1-1.7-0.2c-0.5-0.1-0.9-0.3-1.3-0.5
							c-0.4-0.2-0.7-0.4-1-0.7c-0.3-0.3-0.6-0.6-0.8-0.9c-0.2-0.3-0.5-0.7-0.7-1s-0.4-0.7-0.6-1c-0.2,0.2-0.4,0.5-0.6,0.8
							c-0.2,0.3-0.3,0.7-0.4,1c-0.1,0.4-0.2,0.7-0.4,1c-0.1,0.3-0.2,0.6-0.4,0.9c-0.2,0.3-0.4,0.5-0.6,0.7c-0.3,0.2-0.6,0.3-0.9,0.3
							c-0.2,0-0.3,0-0.5,0c-0.1,0-0.3-0.1-0.4-0.1c-0.1-0.1-0.2-0.2-0.2-0.3c-0.1-0.2-0.1-0.4-0.1-0.6c0-0.7,0.1-1.3,0.2-2
							c0.1-0.9,0.3-1.9,0.5-3.2s0.5-2.6,0.9-4c0.4-1.5,0.8-3,1.3-4.6c0.5-1.6,1.1-3.2,1.7-4.8c0.7-1.6,1.4-3.2,2.2-4.8L65.7,0
							L65.7,0z M62.8,16.8c0.3-0.1,0.6-0.2,0.9-0.3c0.2-0.1,0.4-0.2,0.6-0.4c0.2-0.1,0.3-0.3,0.3-0.6c0-0.1-0.1-0.2-0.2-0.3
							c-0.1-0.1-0.2-0.1-0.4-0.1c-0.2,0-0.3,0-0.5,0.1c-0.3,0.2-0.6,0.4-0.9,0.6c-0.1,0.1-0.2,0.2-0.3,0.3L62.8,16.8L62.8,16.8z
							 M96.8,27.5c-0.9,0-1.8-0.1-2.6-0.4c-0.7-0.2-1.3-0.6-1.9-1.1c-0.5-0.4-1-1-1.3-1.6c-0.4-0.6-0.7-1.2-0.9-1.9
							c-0.3-0.7-0.5-1.3-0.7-2c-0.2-0.7-0.4-1.4-0.6-2c-0.2-0.6-0.4-1.2-0.7-1.8c-0.2-0.5-0.5-1-0.9-1.4c-0.3,0-0.6,0-0.8,0
							c-0.2,0-0.5,0-0.8,0c-0.2,0.7-0.4,1.4-0.5,2.2s-0.3,1.5-0.5,2.3s-0.4,1.5-0.6,2.3s-0.5,1.5-0.8,2.3c-0.4,0-0.8,0-1.1-0.1
							c-0.4-0.1-0.7-0.2-1.1-0.3c-0.3-0.2-0.6-0.4-0.8-0.6c-0.2-0.3-0.3-0.7-0.3-1c0-0.3,0-0.7,0.1-1c0.1-0.4,0.2-0.9,0.3-1.4
							s0.3-1.1,0.4-1.7s0.3-1.3,0.5-2s0.4-1.4,0.6-2.1s0.4-1.4,0.6-2.1c0.8-2.5,1.6-5.2,2.6-8.1c0.9-0.3,1.8-0.6,2.7-0.8
							C88.2,3,88.6,2.9,89,2.8c0.4-0.1,0.8-0.2,1.2-0.3s0.8-0.1,1.2-0.2c0.4,0,0.7-0.1,1.1-0.1c0.9,0,1.8,0.1,2.6,0.3
							c0.7,0.2,1.4,0.5,1.9,0.9c0.5,0.4,0.9,1,1.2,1.6c0.3,0.7,0.4,1.5,0.4,2.3c0,0.8-0.1,1.6-0.4,2.4c-0.3,0.7-0.7,1.3-1.1,1.8
							c-0.5,0.5-1,1-1.6,1.4c-0.6,0.4-1.1,0.7-1.8,1c-1,0.4-2,0.8-3,1c0.4,0.7,0.8,1.5,1.2,2.3c0.4,0.9,0.8,1.7,1.3,2.6
							c0.4,0.9,0.9,1.8,1.4,2.6c0.5,0.8,1,1.5,1.6,2.2c0.2,0.2,0.3,0.3,0.5,0.4c0.2,0.2,0.5,0.4,0.8,0.6c0.2,0.2,0.5,0.4,0.7,0.6
							c0.2,0.1,0.3,0.3,0.3,0.5c0,0.1-0.1,0.3-0.2,0.4c-0.2,0.1-0.3,0.2-0.5,0.3c-0.2,0.1-0.4,0.1-0.6,0.2
							C97.1,27.5,96.9,27.5,96.8,27.5L96.8,27.5z M88.3,6.9c-0.1,0.5-0.3,1-0.5,1.5s-0.4,1.1-0.5,1.7s-0.3,1.1-0.5,1.5
							c-0.1,0.3-0.2,0.7-0.2,1c0.7,0.1,1.3,0,2-0.1c0.7-0.1,1.4-0.3,2.1-0.5c0.7-0.2,1.3-0.5,1.9-0.8c0.6-0.3,1.1-0.6,1.6-1
							c0.4-0.3,0.8-0.7,1.1-1.1c0.3-0.3,0.4-0.7,0.4-1.1c0-0.3-0.1-0.6-0.3-0.9c-0.3-0.2-0.6-0.4-0.9-0.6c-0.4-0.2-0.8-0.3-1.3-0.3
							c-0.5-0.1-1-0.1-1.5-0.1c-0.4,0-0.7,0-1.1,0c-0.4,0-0.7,0.1-1,0.1c-0.3,0-0.6,0.1-0.9,0.2C88.7,6.7,88.5,6.8,88.3,6.9
							L88.3,6.9z M101.8,6.7c0.2,0,0.4,0,0.6,0c0.2,0,0.3,0,0.5,0s0.4,0,0.5,0c0.2,0,0.5,0.1,0.6,0.2c0.2,0.2,0.4,0.4,0.6,0.6
							c0.2,0.3,0.3,0.6,0.5,0.9c0.1,0.4,0.2,0.8,0.2,1.2c0,0.3-0.1,0.5-0.2,0.8c-0.2,0.2-0.5,0.3-0.9,0.3c-0.4,0-0.8-0.1-1.1-0.2
							c-0.3-0.1-0.6-0.3-0.9-0.5c-0.3-0.2-0.5-0.5-0.6-0.7c-0.2-0.3-0.2-0.6-0.2-0.9c0-0.3,0.1-0.6,0.1-0.8
							C101.5,7.2,101.6,7,101.8,6.7L101.8,6.7z M106.8,16c-0.4,0.4-0.9,0.8-1.4,1.3s-1.1,1-1.6,1.5s-1.1,1-1.7,1.4
							c-0.5,0.4-1,0.7-1.5,1c-0.1-0.2-0.1-0.4-0.1-0.6c0-0.3,0-0.7,0.1-1c0.1-0.4,0.2-0.8,0.3-1.2c0.1-0.4,0.3-0.8,0.5-1.2
							c0.2-0.4,0.3-0.8,0.5-1.1s0.4-0.7,0.5-1c0.1-0.2,0.3-0.5,0.5-0.7c-0.1-0.3-0.2-0.6-0.3-0.8c-0.1-0.3-0.2-0.5-0.3-0.7
							c-0.1-0.2-0.3-0.5-0.5-0.7c-0.2-0.2-0.4-0.4-0.6-0.6c-0.1-0.1-0.3-0.2-0.5-0.2c-0.3,0-0.7,0.2-0.9,0.5c-0.4,0.4-0.7,0.8-1,1.3
							c-0.3,0.6-0.7,1.2-0.9,1.8c-0.3,0.6-0.6,1.3-0.8,2c-0.2,0.6-0.4,1.3-0.6,2c-0.1,0.6-0.2,1.1-0.2,1.7c0,0.3,0,0.7,0.1,1
							c0.1,0.3,0.2,0.6,0.4,0.8c0.1,0.1,0.2,0.2,0.4,0.3c0.2,0.2,0.5,0.3,0.7,0.4c0.3,0.2,0.6,0.3,0.9,0.5c0.3,0.2,0.6,0.3,0.9,0.4
							s0.6,0.2,0.9,0.3c0.2,0.1,0.4,0.1,0.7,0.1c0.4,0,0.7-0.2,1-0.4c0.4-0.3,0.9-0.7,1.2-1.1c0.4-0.4,0.9-0.9,1.3-1.5
							s0.9-1.1,1.3-1.6c0.4-0.5,0.7-1,1-1.5c0.2-0.4,0.5-0.8,0.7-1.2c0,0,0-0.1-0.1-0.1l-0.3-0.2c-0.1-0.1-0.2-0.2-0.4-0.4
							C107.1,16.4,107,16.2,106.8,16L106.8,16z"/>
					</g>
					<g id="Path_15937">
						<path class="st2" d="M122.3,16.5c0.2,0.2,0.3,0.4,0.3,0.6c0,0.2,0,0.4,0,0.7c0,0.2-0.1,0.4-0.2,0.6c-0.1,0.2-0.1,0.3-0.2,0.4
							c-0.4,0.6-0.9,1.2-1.4,1.8c-0.5,0.5-0.9,1-1.5,1.4c-0.4,0.4-0.9,0.7-1.4,1.1c-0.4,0.3-0.8,0.5-1.3,0.7c-0.3,0.2-0.6,0.3-1,0.4
							c-0.2,0.1-0.3,0.1-0.5,0.1c-0.3-0.1-0.5-0.2-0.7-0.3c-0.2-0.1-0.4-0.2-0.6-0.3c-0.2-0.1-0.4-0.3-0.6-0.4
							c-0.2-0.2-0.4-0.4-0.5-0.6c0,0-0.1,0-0.1,0.1c0,0,0,0,0.1,0.1c0,0,0,0,0,0s0,0,0-0.1c-0.3,0.2-0.6,0.3-0.8,0.5
							c-0.3,0.2-0.5,0.4-0.8,0.6c-0.3,0.2-0.5,0.3-0.8,0.5c-0.3,0.1-0.6,0.2-0.9,0.1c-0.2,0-0.4-0.1-0.5-0.2
							c-0.2-0.1-0.5-0.2-0.7-0.4c-0.3-0.1-0.5-0.3-0.8-0.5s-0.5-0.4-0.8-0.5s-0.5-0.4-0.6-0.5c-0.1-0.1-0.3-0.3-0.4-0.4
							c-0.2-0.4-0.4-0.9-0.4-1.4c0-0.5,0-1,0.2-1.5c0.1-0.5,0.3-1,0.6-1.5c0.3-0.5,0.5-1,0.9-1.4c0.3-0.5,0.6-0.9,1-1.3
							c0.3-0.4,0.7-0.8,0.9-1.1c0.5-0.5,1-1,1.6-1.3c0.5-0.3,1.1-0.5,1.7-0.6c0.6-0.1,1.2,0,1.7,0.2c0.6,0.2,1.2,0.6,1.6,1.1
							c0.2-0.3,0.3-0.8,0.5-1.2s0.4-1,0.5-1.5s0.3-1,0.5-1.5s0.3-0.9,0.4-1.3c0-0.1,0.1-0.3,0.1-0.6s0.1-0.6,0.2-0.9s0.2-0.7,0.3-1
							c0.1-0.3,0.2-0.7,0.3-1c0.1-0.3,0.2-0.5,0.4-0.7c0.1-0.2,0.2-0.3,0.4-0.3c0.2,0.2,0.5,0.3,0.7,0.5c0.3,0.2,0.5,0.5,0.8,0.7
							c0.2,0.3,0.5,0.5,0.7,0.8c0.2,0.2,0.3,0.5,0.5,0.7c-0.2,0.6-0.4,1.3-0.7,2s-0.6,1.5-0.9,2.3c-0.3,0.8-0.7,1.7-1.1,2.6
							s-0.7,1.8-1.1,2.7c-0.4,0.9-0.7,1.8-1,2.7c-0.3,0.9-0.6,1.8-0.9,2.6c0.2,0.1,0.5,0.1,0.7-0.1c0.3-0.1,0.7-0.3,1-0.6
							c0.4-0.3,0.8-0.6,1.1-0.9c0.4-0.3,0.8-0.7,1.2-1.1s0.7-0.7,1.1-1s0.6-0.6,0.9-0.9L122.3,16.5L122.3,16.5z M114.2,14.4
							c-0.5,0.3-1,0.6-1.5,1c-0.5,0.4-1,0.9-1.4,1.4c-0.4,0.5-0.8,1.1-1.2,1.6c-0.3,0.5-0.6,1.1-0.8,1.7c-0.1,0.2-0.1,0.3-0.1,0.5
							c0,0.2,0,0.4,0.1,0.5c0.4-0.2,0.8-0.4,1.2-0.6c0.4-0.3,0.9-0.6,1.2-0.9c0.4-0.4,0.8-0.7,1.2-1.2c0.4-0.4,0.7-0.8,0.9-1.3
							c0.2-0.4,0.4-0.9,0.5-1.4C114.3,15.3,114.3,14.9,114.2,14.4L114.2,14.4z M126.4,15.3c0.3,0,0.6-0.1,0.8-0.3
							c0.3-0.2,0.5-0.4,0.8-0.6c0.2-0.2,0.4-0.5,0.6-0.8c0.2-0.3,0.3-0.5,0.5-0.8c0,0-0.1,0-0.1-0.1c0,0-0.1,0-0.1,0
							c-0.3,0-0.6,0.2-0.9,0.3c-0.3,0.2-0.5,0.4-0.7,0.6c-0.2,0.2-0.4,0.5-0.5,0.8C126.6,14.8,126.5,15.1,126.4,15.3L126.4,15.3z
							 M134.8,18.5c0.2-0.3,0.4-0.7,0.6-1.1c0.2-0.4,0.2-0.8,0.2-1.2c0-0.1,0-0.3-0.1-0.4c0-0.1-0.1-0.1-0.2-0.2c-0.1,0-0.2,0-0.3,0
							c-0.1,0-0.2,0-0.3,0c-0.3,0-0.5,0.1-0.7,0.2c-0.2,0.1-0.5,0.3-0.7,0.5c-0.2,0.2-0.4,0.4-0.6,0.5c-0.2,0.2-0.3,0.3-0.4,0.4
							c-0.4,0.4-0.8,0.8-1.3,1.3c-0.5,0.5-1,0.9-1.6,1.3c-0.5,0.4-1.1,0.7-1.7,1c-0.5,0.3-1.1,0.4-1.7,0.4c-0.6,0.1-1.1-0.2-1.3-0.7
							c0-0.1,0-0.3,0-0.4c0-0.3,0-0.6,0.1-0.8c0.1-0.2,0.2-0.5,0.3-0.7c0.4-0.2,0.8-0.3,1.3-0.5s0.9-0.4,1.3-0.6
							c0.4-0.2,0.9-0.5,1.3-0.8c0.4-0.3,0.7-0.6,1.1-1c0.3-0.3,0.5-0.7,0.7-1.2c0.2-0.4,0.3-0.9,0.3-1.4c0.1-0.7-0.2-1.4-0.7-2
							c-0.6-0.5-1.4-0.7-2.2-0.7c-0.6,0-1.2,0.1-1.8,0.4c-0.6,0.3-1.2,0.6-1.7,1c-0.6,0.4-1.1,0.9-1.5,1.5c-0.5,0.5-0.9,1.1-1.2,1.8
							c-0.3,0.6-0.6,1.2-0.8,1.9c-0.2,0.6-0.3,1.2-0.3,1.8c0,0.4,0.1,0.8,0.2,1.3c0,0.1,0.1,0.3,0.1,0.4c0.1,0.2,0.2,0.4,0.3,0.6
							c0.2,0.3,0.5,0.6,0.8,0.9c0.3,0.3,0.6,0.5,1,0.7c0.2,0.1,0.3,0.2,0.5,0.3c0.2,0.1,0.4,0.2,0.7,0.3s0.5,0.2,0.8,0.3
							s0.5,0.2,0.7,0.3s0.4,0.2,0.6,0.2c0.1,0,0.3,0.1,0.4,0.1c0.4,0,0.9-0.1,1.2-0.3c0.5-0.2,1-0.5,1.5-0.8c0.5-0.4,1-0.7,1.5-1.1
							c0.5-0.4,1-0.9,1.5-1.3s0.9-0.8,1.2-1.2C134.2,19.2,134.5,18.9,134.8,18.5L134.8,18.5z"/>
					</g>
				</g>
			</g>
			<g id="Group_1797" transform="translate(0 0)">
				<g>
					<defs>
						<circle id="SVGID_00000009560158294511096420000014298766442778278544_" cx="35.5" cy="35.5" r="35.5"/>
					</defs>
					<clipPath id="SVGID_00000007403650399899132650000012187451181617044410_">
						<use xlink:href="#SVGID_00000009560158294511096420000014298766442778278544_"  style="overflow:visible;"/>
					</clipPath>
					
						<g id="Group_1796" transform="translate(0)" style="clip-path:url(#SVGID_00000007403650399899132650000012187451181617044410_);">
						<g id="Mask_Group_1" transform="translate(-3.878 -4.392)">
							<g id="QR_Anim02">
								<g id="Group_1794">
									<g id="Group_155">
										<g id="Group_154">
											<g id="Group_153">
												<g id="Path_1939">
													<path class="st4" d="M75.1,37.5C75.1,16.8,58.3,0,37.5,0C16.8,0,0,16.8,0,37.5c0,20.7,16.8,37.5,37.5,37.5
														c10,0,19.5-4,26.5-11C71.3,57.1,75.2,47.5,75.1,37.5z"/>
												</g>
											</g>
										</g>
									</g>
								</g>
								<g id="Arrow" transform="translate(29.285 9.215)">
									<g id="Group_162">
										<g id="Layer_3">
											<g id="Group_158">
												<g id="Group_157">
													<g id="Group_156">
														<g id="Path_1940">
															<path class="st5" d="M4.7,11.3v10.4L9,26.3l4.7-4.6V11.3h4.4L9.1,0L0,11.3H4.7z"/>
														</g>
													</g>
												</g>
											</g>
											<g id="Group_161" transform="translate(8.051 10.297)">
												<g id="Group_160">
													<g id="Group_159">
														<g id="Path_1941">
															<path class="st6" d="M2,11.7V3.6H0v8.1l1,1L2,11.7 M2,1.6V0H0v1.6L2,1.6z"/>
														</g>
													</g>
												</g>
											</g>
										</g>
									</g>
								</g>
								<g id="Arrow_L" transform="translate(13.79 26.038)">
									<g id="Group_169">
										<g id="Group_1795">
											<g id="Group_165">
												<g id="Group_164">
													<g id="Group_163">
														<g id="Path_1942">
															<path class="st5" d="M12.1,4.2L13.7,0L0,4l6.6,12.5l1.8-3.9c1.6,0.2,3.6,1.6,6,4.2c2.2,2.4,3.5,4.5,3.9,6.1
																c0,0,0.7-1.5,1.9-4.5c0.8-2,1.7-3.9,2.7-5.8c-1.4-1.8-3.1-3.5-5-4.9C15.4,5.7,13.4,4.5,12.1,4.2z"/>
														</g>
													</g>
												</g>
											</g>
											<g id="Group_168" transform="translate(8.969 6.51)">
												<g id="Group_167">
													<g id="Group_166">
														<g id="Path_1943">
															<path class="st6" d="M1.5,2.5l0.9-1.9C1.9,0.4,1.4,0.2,0.8,0L0,1.9C0.5,2.1,1,2.3,1.5,2.5 M4.3,1.7l-1,1.8
																C5.9,5.1,8,7.3,9.5,9.8c0.4-0.8,0.8-1.5,1-2.1C8.9,5.3,6.8,3.3,4.3,1.7L4.3,1.7z"/>
														</g>
													</g>
												</g>
											</g>
										</g>
									</g>
								</g>
								<g id="Arrow_R" transform="translate(34.579 26.038)">
									<g id="Group_177">
										<g id="Group_176">
											<g id="Layer_1-2">
												<g id="Group_172">
													<g id="Group_171">
														<g id="Group_170">
															<g id="Path_1944">
																<path class="st5" d="M21.1,12.5l1.6,4.1l6.8-12.3L16.1,0l1.6,4c-5.5,2.9-9.5,6.3-12.1,10.1c-2.5,3.7-4.2,8.7-5.1,15
																	L0,34.9c0,3.2,0.7,4.9,2.1,5.2c1.5,0.3,3.9-0.7,7.2-3.2c-0.1-0.6-0.2-1.3-0.2-1.9v-1c0.1-2.3,0.4-4.5,0.9-6.7
																	c0.5-2.2,1.2-4.3,2.1-6.3c1-2,2.4-3.8,4.1-5.3C16.5,15.6,18.1,14.5,21.1,12.5z"/>
															</g>
														</g>
													</g>
												</g>
												<g id="Group_175" transform="translate(3.59 7.707)">
													<g id="Group_174">
														<g id="Group_173">
															<g id="Path_1945">
																<path class="st6" d="M3.2,16.9l-1.9-0.6C0.4,19.6,0,23.1,0,26.5l2-0.1C1.9,23.2,2.4,20,3.2,16.9 M9,7L7.5,5.6
																	C5.1,8.1,3.2,11.1,2,14.3L3.9,15C5,12,6.7,9.3,9,7 M16,1.9L15.2,0C13,1.1,10.9,2.5,9.1,4.1l1.4,1.5
																	C12.1,4.2,14,2.9,16,1.9L16,1.9z"/>
															</g>
														</g>
													</g>
												</g>
											</g>
										</g>
									</g>
								</g>
								<g id="Layer_3-2" transform="translate(66.286 45.009)">
									<g id="Group_180">
										<g id="Group_179">
											<g id="Group_178">
												<g id="Path_1946">
													<path class="st5" d="M6.7,0C3,0,0,3,0,6.7c0,3.7,3,6.7,6.7,6.7c3.7,0,6.7-3,6.7-6.7c0-1.8-0.7-3.5-2-4.8
														C10.2,0.7,8.5,0,6.7,0z"/>
												</g>
											</g>
										</g>
									</g>
								</g>
								<g id="Layer_4" transform="translate(57.635 47.124)">
									<g id="Group_183">
										<g id="Group_182">
											<g id="Group_181">
												<g id="Path_1947">
													<path class="st5" d="M13.7,2.3c-3.1-3.1-8.2-3.1-11.4,0c-3.1,3.1-3.1,8.2,0,11.4c3.1,3.1,8.2,3.1,11.4,0
														c1.5-1.5,2.3-3.5,2.3-5.7C16.1,5.9,15.2,3.8,13.7,2.3z"/>
												</g>
											</g>
										</g>
									</g>
								</g>
								<g id="Layer_5" transform="translate(54.118 55.127)">
									<g id="Group_186">
										<g id="Group_185">
											<g id="Group_184">
												<g id="Path_1948">
													<path class="st5" d="M4.6,4.6c1-1,1-2.7,0-3.8c-1-1-2.7-1-3.8,0c-1,1-1,2.7,0,3.8C1.3,5.1,2,5.3,2.7,5.3
														C3.4,5.4,4.1,5.1,4.6,4.6z"/>
												</g>
											</g>
										</g>
									</g>
								</g>
								<g id="Layer_6" transform="translate(46.199 57.142)">
									<g id="Group_189">
										<g id="Group_188">
											<g id="Group_187">
												<g id="Path_1949">
													<path class="st5" d="M6.7,0C3,0,0,3,0,6.7c0,3.7,3,6.7,6.7,6.7c3.7,0,6.7-3,6.7-6.7c0-1.8-0.7-3.5-2-4.8
														C10.2,0.7,8.5,0,6.7,0z"/>
												</g>
											</g>
										</g>
									</g>
								</g>
								<g id="Mid" transform="translate(29.798 59.234)">
									<g id="Group_192">
										<g id="Group_191">
											<g id="Group_190">
												<g id="Path_1950">
													<path class="st5" d="M18,2.7C16.1,0.9,13.5,0,10.9,0C8.2-0.1,5.4,0.8,3.3,2.6C1.2,4.2-0.1,6.8,0,9.5
														c0,5.7,4.6,10.4,10.4,10.4s10.4-4.6,10.4-10.4C20.8,6.9,19.8,4.5,18,2.7z"/>
												</g>
											</g>
										</g>
									</g>
								</g>
								<g id="Layer_8" transform="translate(1.256 45.009)">
									<g id="Group_195">
										<g id="Group_194">
											<g id="Group_193">
												<g id="Path_1951">
													<path class="st5" d="M6.7,0C3,0,0,3,0,6.7c0,3.7,3,6.7,6.7,6.7c3.7,0,6.7-3,6.7-6.7c0-1.8-0.7-3.5-2-4.8
														C10.2,0.7,8.5,0,6.7,0z"/>
												</g>
											</g>
										</g>
									</g>
								</g>
								<g id="Layer_9" transform="translate(7.329 47.124)">
									<g id="Group_198">
										<g id="Group_197">
											<g id="Group_196">
												<g id="Path_1952">
													<path class="st5" d="M13.7,2.3c-3.1-3.1-8.2-3.1-11.4,0c-3.1,3.1-3.1,8.2,0,11.4c3.1,3.1,8.2,3.1,11.4,0
														c1.5-1.5,2.3-3.5,2.3-5.7C16.1,5.9,15.2,3.8,13.7,2.3z"/>
												</g>
											</g>
										</g>
									</g>
								</g>
								<g id="Layer_10" transform="translate(21.529 55.11)">
									<g id="Group_201">
										<g id="Group_200">
											<g id="Group_199">
												<g id="Path_1953">
													<path class="st5" d="M0,2.7c0,1.5,1.2,2.7,2.7,2.7c1.5,0,2.7-1.2,2.7-2.7C5.4,1.2,4.2,0,2.7,0C2,0,1.3,0.3,0.8,0.8
														C0.3,1.3,0,2,0,2.7z"/>
												</g>
											</g>
										</g>
									</g>
								</g>
								<g id="Layer_11" transform="translate(21.381 57.634)">
									<g id="Group_204">
										<g id="Group_203">
											<g id="Group_202">
												<g id="Path_1954">
													<path class="st5" d="M2,2c-2.6,2.6-2.6,6.9,0,9.5c2.6,2.6,6.9,2.6,9.5,0C14,8.8,14,4.6,11.4,2c-1.3-1.2-3-2-4.7-2
														C4.9,0,3.2,0.7,2,2z"/>
												</g>
											</g>
										</g>
									</g>
								</g>
								<g id="CoverGreen" transform="translate(10.555 56.945)">
									<g id="Group_207">
										<g id="Group_206">
											<g id="Group_205">
												<g id="Path_1955">
													<path class="st5" d="M8.1,0C3.6,0,0,3.6,0,8.1c0,4.5,3.6,8.1,8.1,8.1c4.5,0,8.1-3.6,8.1-8.1c0-2.1-0.8-4.2-2.4-5.7
														C12.3,0.8,10.2,0,8.1,0z"/>
												</g>
											</g>
										</g>
									</g>
								</g>
								<g id="Layer_13" transform="translate(17.79 63.505)">
									<g id="Group_210">
										<g id="Group_209">
											<g id="Group_208">
												<g id="Path_1956">
													<path class="st5" d="M0,8.1c0,4.5,3.6,8.1,8.1,8.1c4.5,0,8.1-3.6,8.1-8.1S12.5,0,8.1,0C5.9,0,3.9,0.9,2.4,2.4
														C0.8,3.9,0,5.9,0,8.1z"/>
												</g>
											</g>
										</g>
									</g>
								</g>
								<g id="Layer_14" transform="translate(52.203 56.925)">
									<g id="Group_213">
										<g id="Group_212">
											<g id="Group_211">
												<g id="Path_1957">
													<path class="st5" d="M16.1,8.1c0-4.5-3.6-8.1-8.1-8.1C3.6,0,0,3.6,0,8.1s3.6,8.1,8.1,8.1c2.1,0,4.2-0.8,5.7-2.4
														C15.3,12.3,16.2,10.2,16.1,8.1z"/>
												</g>
											</g>
										</g>
									</g>
								</g>
								<g id="Layer_15" transform="translate(42.419 63.521)">
									<g id="Group_216">
										<g id="Group_215">
											<g id="Group_214">
												<g id="Path_1958">
													<path class="st5" d="M13.7,2.3c-3.1-3.1-8.2-3.1-11.4,0s-3.1,8.2,0,11.4c3.1,3.1,8.2,3.1,11.4,0
														c1.5-1.5,2.3-3.5,2.3-5.7C16.1,5.9,15.2,3.8,13.7,2.3z"/>
												</g>
											</g>
										</g>
									</g>
								</g>
							</g>
						</g>
					</g>
				</g>
			</g>
		</g>
		<g class="st7">
			<path class="st8" d="M109.5,49.9c0,0.3-0.1,0.6-0.2,0.9c-0.1,0.3-0.3,0.5-0.5,0.7s-0.5,0.3-0.8,0.5c-0.3,0.1-0.6,0.2-1,0.2
				s-0.7-0.1-1.1-0.2c-0.3-0.1-0.6-0.3-0.8-0.6c-0.2-0.3-0.4-0.6-0.5-1c-0.1-0.4-0.2-0.8-0.2-1.3v-0.5c0-0.5,0.1-0.9,0.2-1.2
				c0.1-0.4,0.3-0.7,0.5-1s0.5-0.5,0.8-0.6c0.3-0.1,0.7-0.2,1.1-0.2c0.4,0,0.7,0.1,1,0.2c0.3,0.1,0.5,0.3,0.7,0.5
				c0.2,0.2,0.4,0.4,0.5,0.7s0.2,0.6,0.2,0.9h-1.1c0-0.2-0.1-0.4-0.1-0.5c-0.1-0.2-0.1-0.3-0.2-0.4c-0.1-0.1-0.2-0.2-0.4-0.3
				c-0.2-0.1-0.4-0.1-0.6-0.1c-0.3,0-0.5,0-0.7,0.1c-0.2,0.1-0.3,0.2-0.5,0.4c-0.1,0.2-0.2,0.4-0.3,0.7c-0.1,0.3-0.1,0.6-0.1,0.9
				v0.5c0,0.3,0,0.6,0.1,0.9s0.1,0.5,0.3,0.7c0.1,0.2,0.3,0.3,0.5,0.4c0.2,0.1,0.4,0.2,0.7,0.2c0.2,0,0.4,0,0.6-0.1
				c0.2-0.1,0.3-0.1,0.4-0.2c0.1-0.1,0.2-0.2,0.3-0.4c0.1-0.2,0.1-0.3,0.1-0.5H109.5z"/>
			<path class="st8" d="M113.3,52c0-0.1-0.1-0.1-0.1-0.2c0-0.1,0-0.2-0.1-0.2c-0.1,0.1-0.1,0.1-0.2,0.2c-0.1,0.1-0.2,0.1-0.3,0.2
				c-0.1,0-0.2,0.1-0.3,0.1c-0.1,0-0.3,0-0.4,0c-0.2,0-0.5,0-0.7-0.1c-0.2-0.1-0.4-0.2-0.5-0.3c-0.1-0.1-0.3-0.3-0.3-0.5
				c-0.1-0.2-0.1-0.4-0.1-0.6c0-0.3,0-0.5,0.1-0.7s0.2-0.4,0.4-0.5c0.2-0.1,0.4-0.2,0.7-0.3c0.3-0.1,0.6-0.1,0.9-0.1h0.7v-0.3
				c0-0.2-0.1-0.4-0.2-0.6c-0.1-0.1-0.3-0.2-0.6-0.2c-0.1,0-0.2,0-0.3,0c-0.1,0-0.2,0.1-0.3,0.1c-0.1,0.1-0.1,0.1-0.2,0.2
				c0,0.1-0.1,0.2-0.1,0.3h-1.1c0-0.2,0-0.4,0.1-0.5c0.1-0.2,0.2-0.3,0.4-0.5c0.2-0.1,0.4-0.2,0.6-0.3s0.5-0.1,0.8-0.1
				c0.3,0,0.5,0,0.7,0.1c0.2,0.1,0.4,0.2,0.6,0.3c0.2,0.1,0.3,0.3,0.4,0.5c0.1,0.2,0.1,0.4,0.1,0.7v2.1c0,0.4,0.1,0.8,0.2,1V52
				H113.3z M112.1,51.2c0.1,0,0.2,0,0.3,0c0.1,0,0.2-0.1,0.3-0.1c0.1-0.1,0.2-0.1,0.2-0.2c0.1-0.1,0.1-0.1,0.2-0.2v-0.9h-0.6
				c-0.4,0-0.7,0.1-0.9,0.2s-0.3,0.3-0.3,0.6c0,0.1,0,0.2,0,0.3c0,0.1,0.1,0.2,0.1,0.2c0.1,0.1,0.1,0.1,0.2,0.1
				C111.9,51.2,112,51.2,112.1,51.2z"/>
			<path class="st8" d="M117.8,48.2c-0.1,0-0.1,0-0.2,0c-0.1,0-0.1,0-0.2,0c-0.3,0-0.5,0-0.6,0.1s-0.3,0.2-0.4,0.4V52h-1.1v-4.8h1
				l0,0.5c0.1-0.2,0.3-0.3,0.4-0.5c0.2-0.1,0.4-0.2,0.6-0.2c0.1,0,0.1,0,0.2,0c0.1,0,0.1,0,0.2,0L117.8,48.2z"/>
			<path class="st8" d="M122.6,49.7c0,0.3,0,0.7-0.1,1c-0.1,0.3-0.2,0.6-0.4,0.8c-0.2,0.2-0.3,0.4-0.6,0.5c-0.2,0.1-0.5,0.2-0.8,0.2
				c-0.3,0-0.5,0-0.7-0.1s-0.4-0.2-0.5-0.4v2.3h-1.1v-6.6h1l0,0.5c0.2-0.2,0.3-0.3,0.5-0.4c0.2-0.1,0.5-0.1,0.7-0.1
				c0.3,0,0.6,0.1,0.8,0.2s0.4,0.3,0.6,0.5c0.2,0.2,0.3,0.5,0.4,0.8C122.6,48.9,122.6,49.2,122.6,49.7L122.6,49.7z M121.6,49.6
				c0-0.2,0-0.4-0.1-0.6s-0.1-0.4-0.2-0.5s-0.2-0.3-0.3-0.3c-0.1-0.1-0.3-0.1-0.5-0.1c-0.2,0-0.4,0-0.6,0.1s-0.3,0.2-0.4,0.4v2.1
				c0.1,0.2,0.2,0.3,0.4,0.4c0.2,0.1,0.3,0.2,0.6,0.2c0.2,0,0.4,0,0.5-0.1c0.1-0.1,0.2-0.2,0.3-0.3c0.1-0.1,0.2-0.3,0.2-0.5
				S121.6,49.9,121.6,49.6L121.6,49.6z"/>
			<path class="st8" d="M123.3,49.6c0-0.3,0.1-0.7,0.2-1c0.1-0.3,0.2-0.5,0.4-0.8c0.2-0.2,0.4-0.4,0.7-0.5s0.6-0.2,0.9-0.2
				c0.3,0,0.7,0.1,0.9,0.2s0.5,0.3,0.7,0.5c0.2,0.2,0.3,0.5,0.4,0.8c0.1,0.3,0.2,0.6,0.2,1v0.1c0,0.3-0.1,0.7-0.2,1
				c-0.1,0.3-0.2,0.6-0.4,0.8c-0.2,0.2-0.4,0.4-0.7,0.5c-0.3,0.1-0.6,0.2-0.9,0.2c-0.3,0-0.7-0.1-0.9-0.2c-0.3-0.1-0.5-0.3-0.7-0.5
				c-0.2-0.2-0.3-0.5-0.4-0.8C123.4,50.3,123.3,50,123.3,49.6L123.3,49.6z M124.4,49.7c0,0.2,0,0.4,0.1,0.6c0,0.2,0.1,0.4,0.2,0.5
				c0.1,0.1,0.2,0.3,0.4,0.3c0.1,0.1,0.3,0.1,0.5,0.1c0.2,0,0.4,0,0.5-0.1c0.1-0.1,0.3-0.2,0.4-0.3c0.1-0.1,0.2-0.3,0.2-0.5
				c0-0.2,0.1-0.4,0.1-0.6v-0.1c0-0.2,0-0.4-0.1-0.6c0-0.2-0.1-0.4-0.2-0.5c-0.1-0.1-0.2-0.3-0.4-0.3c-0.1-0.1-0.3-0.1-0.5-0.1
				s-0.4,0-0.5,0.1s-0.3,0.2-0.4,0.3c-0.1,0.1-0.2,0.3-0.2,0.5C124.4,49.2,124.4,49.4,124.4,49.7L124.4,49.7z"/>
			<path class="st8" d="M128.4,49.6c0-0.3,0-0.7,0.2-1c0.1-0.3,0.2-0.5,0.4-0.8c0.2-0.2,0.4-0.4,0.7-0.5s0.6-0.2,0.9-0.2
				c0.3,0,0.7,0.1,0.9,0.2s0.5,0.3,0.7,0.5c0.2,0.2,0.3,0.5,0.4,0.8c0.1,0.3,0.1,0.6,0.1,1v0.1c0,0.3,0,0.7-0.1,1
				c-0.1,0.3-0.2,0.6-0.4,0.8c-0.2,0.2-0.4,0.4-0.7,0.5c-0.3,0.1-0.6,0.2-0.9,0.2c-0.3,0-0.7-0.1-0.9-0.2c-0.3-0.1-0.5-0.3-0.7-0.5
				c-0.2-0.2-0.3-0.5-0.4-0.8C128.5,50.3,128.4,50,128.4,49.6L128.4,49.6z M129.5,49.7c0,0.2,0,0.4,0.1,0.6c0,0.2,0.1,0.4,0.2,0.5
				c0.1,0.1,0.2,0.3,0.4,0.3c0.1,0.1,0.3,0.1,0.5,0.1c0.2,0,0.4,0,0.5-0.1c0.1-0.1,0.3-0.2,0.4-0.3c0.1-0.1,0.2-0.3,0.2-0.5
				c0-0.2,0.1-0.4,0.1-0.6v-0.1c0-0.2,0-0.4-0.1-0.6c0-0.2-0.1-0.4-0.2-0.5c-0.1-0.1-0.2-0.3-0.4-0.3c-0.1-0.1-0.3-0.1-0.5-0.1
				s-0.4,0-0.5,0.1s-0.3,0.2-0.4,0.3c-0.1,0.1-0.2,0.3-0.2,0.5C129.5,49.2,129.5,49.4,129.5,49.7L129.5,49.7z"/>
			<path class="st8" d="M134.9,52h-1.1v-6.8h1.1V52z"/>
		</g>
		<g id="Group_1799" transform="translate(136.977 50)">
			<g id="Ellipse_268">
				<ellipse class="st8" cx="1.1" cy="0.1" rx="1.1" ry="1.1"/>
			</g>
		</g>
		<g id="Group_1800" transform="translate(182 50)">
			<g id="Ellipse_269">
				<ellipse class="st8" cx="1.1" cy="0.1" rx="1.1" ry="1.1"/>
			</g>
		</g>
		<g class="st7">
			<path class="st8" d="M145.7,52v-6.4h2.2c0.3,0,0.7,0,0.9,0.1c0.3,0.1,0.5,0.2,0.7,0.3s0.3,0.3,0.4,0.5c0.1,0.2,0.2,0.5,0.2,0.8
				c0,0.3-0.1,0.6-0.2,0.8s-0.4,0.4-0.7,0.5c0.2,0,0.3,0.1,0.5,0.2c0.1,0.1,0.2,0.2,0.3,0.3s0.2,0.3,0.2,0.4c0,0.2,0.1,0.3,0.1,0.5
				c0,0.3-0.1,0.6-0.2,0.8c-0.1,0.2-0.2,0.4-0.4,0.6c-0.2,0.2-0.4,0.3-0.7,0.4c-0.3,0.1-0.6,0.1-0.9,0.1H145.7z M146.8,48.3h1.1
				c0.3,0,0.6-0.1,0.8-0.2c0.2-0.2,0.3-0.4,0.3-0.7c0-0.3-0.1-0.5-0.3-0.7c-0.2-0.1-0.5-0.2-0.8-0.2h-1.1V48.3z M146.8,49.1v2h1.2
				c0.2,0,0.3,0,0.5-0.1c0.1,0,0.3-0.1,0.3-0.2c0.1-0.1,0.2-0.2,0.2-0.3s0.1-0.3,0.1-0.4c0-0.3-0.1-0.6-0.3-0.7
				c-0.2-0.2-0.4-0.3-0.8-0.3H146.8z"/>
			<path class="st8" d="M151.2,46c0-0.2,0.1-0.3,0.2-0.4s0.3-0.2,0.4-0.2s0.3,0.1,0.4,0.2s0.2,0.2,0.2,0.4c0,0.2-0.1,0.3-0.2,0.4
				c-0.1,0.1-0.3,0.2-0.4,0.2s-0.3-0.1-0.4-0.2C151.3,46.3,151.2,46.2,151.2,46z M152.4,52h-1.1v-4.8h1.1V52z"/>
			<path class="st8" d="M155.1,50l-0.5,0.5V52h-1.1v-6.8h1.1v3.9l0.3-0.4l1.3-1.5h1.3l-1.8,2l2,2.8h-1.2L155.1,50z"/>
			<path class="st8" d="M160.2,52.1c-0.4,0-0.7-0.1-0.9-0.2s-0.5-0.3-0.7-0.5s-0.3-0.4-0.5-0.7s-0.2-0.6-0.2-0.9v-0.2
				c0-0.4,0.1-0.7,0.2-1c0.1-0.3,0.3-0.6,0.5-0.8c0.2-0.2,0.4-0.4,0.7-0.5c0.3-0.1,0.5-0.2,0.8-0.2c0.3,0,0.6,0.1,0.9,0.2
				c0.3,0.1,0.5,0.3,0.6,0.5s0.3,0.5,0.4,0.7c0.1,0.3,0.1,0.6,0.1,0.9V50H159c0,0.2,0.1,0.4,0.1,0.5s0.1,0.3,0.3,0.4
				c0.1,0.1,0.2,0.2,0.4,0.3s0.3,0.1,0.5,0.1c0.3,0,0.5-0.1,0.7-0.2c0.2-0.1,0.4-0.3,0.5-0.4l0.6,0.5c-0.1,0.1-0.2,0.2-0.3,0.3
				c-0.1,0.1-0.2,0.2-0.4,0.3c-0.2,0.1-0.3,0.2-0.5,0.2C160.7,52.1,160.5,52.1,160.2,52.1z M160.1,48c-0.3,0-0.5,0.1-0.7,0.3
				c-0.2,0.2-0.3,0.5-0.3,0.9h2v-0.1c0-0.1,0-0.3-0.1-0.4c0-0.1-0.1-0.2-0.2-0.3c-0.1-0.1-0.2-0.2-0.3-0.2
				C160.4,48,160.3,48,160.1,48z"/>
			<path class="st8" d="M167.1,49.7c0,0.3,0,0.7-0.1,1c-0.1,0.3-0.2,0.6-0.4,0.8c-0.2,0.2-0.4,0.4-0.6,0.5c-0.2,0.1-0.5,0.2-0.8,0.2
				c-0.3,0-0.5,0-0.7-0.1s-0.4-0.2-0.5-0.4v2.3H163v-6.6h1l0,0.5c0.2-0.2,0.3-0.3,0.5-0.4c0.2-0.1,0.5-0.1,0.7-0.1
				c0.3,0,0.6,0.1,0.8,0.2s0.4,0.3,0.6,0.5c0.2,0.2,0.3,0.5,0.4,0.8C167.1,48.9,167.1,49.2,167.1,49.7L167.1,49.7z M166.1,49.6
				c0-0.2,0-0.4-0.1-0.6c0-0.2-0.1-0.4-0.2-0.5s-0.2-0.3-0.3-0.3c-0.1-0.1-0.3-0.1-0.5-0.1c-0.2,0-0.4,0-0.6,0.1s-0.3,0.2-0.4,0.4
				v2.1c0.1,0.2,0.2,0.3,0.4,0.4c0.2,0.1,0.3,0.2,0.6,0.2c0.2,0,0.4,0,0.5-0.1c0.1-0.1,0.2-0.2,0.3-0.3c0.1-0.1,0.2-0.3,0.2-0.5
				S166.1,49.9,166.1,49.6L166.1,49.6z"/>
			<path class="st8" d="M167.8,49.6c0-0.3,0-0.7,0.2-1c0.1-0.3,0.2-0.5,0.4-0.8c0.2-0.2,0.4-0.4,0.7-0.5s0.6-0.2,0.9-0.2
				c0.3,0,0.7,0.1,0.9,0.2s0.5,0.3,0.7,0.5c0.2,0.2,0.3,0.5,0.4,0.8c0.1,0.3,0.1,0.6,0.1,1v0.1c0,0.3,0,0.7-0.1,1
				c-0.1,0.3-0.2,0.6-0.4,0.8c-0.2,0.2-0.4,0.4-0.7,0.5c-0.3,0.1-0.6,0.2-0.9,0.2c-0.3,0-0.7-0.1-0.9-0.2c-0.3-0.1-0.5-0.3-0.7-0.5
				c-0.2-0.2-0.3-0.5-0.4-0.8C167.9,50.3,167.8,50,167.8,49.6L167.8,49.6z M168.9,49.7c0,0.2,0,0.4,0.1,0.6c0,0.2,0.1,0.4,0.2,0.5
				c0.1,0.1,0.2,0.3,0.4,0.3c0.1,0.1,0.3,0.1,0.5,0.1c0.2,0,0.4,0,0.5-0.1c0.1-0.1,0.3-0.2,0.4-0.3c0.1-0.1,0.2-0.3,0.2-0.5
				c0-0.2,0.1-0.4,0.1-0.6v-0.1c0-0.2,0-0.4-0.1-0.6c0-0.2-0.1-0.4-0.2-0.5c-0.1-0.1-0.2-0.3-0.4-0.3c-0.1-0.1-0.3-0.1-0.5-0.1
				s-0.4,0-0.5,0.1s-0.3,0.2-0.4,0.3c-0.1,0.1-0.2,0.3-0.2,0.5C168.9,49.2,168.9,49.4,168.9,49.7L168.9,49.7z"/>
			<path class="st8" d="M173,49.6c0-0.3,0.1-0.7,0.2-1c0.1-0.3,0.2-0.5,0.4-0.8c0.2-0.2,0.4-0.4,0.7-0.5s0.6-0.2,0.9-0.2
				c0.3,0,0.7,0.1,0.9,0.2s0.5,0.3,0.7,0.5c0.2,0.2,0.3,0.5,0.4,0.8c0.1,0.3,0.2,0.6,0.2,1v0.1c0,0.3-0.1,0.7-0.2,1
				c-0.1,0.3-0.2,0.6-0.4,0.8c-0.2,0.2-0.4,0.4-0.7,0.5c-0.3,0.1-0.6,0.2-0.9,0.2c-0.3,0-0.7-0.1-0.9-0.2c-0.3-0.1-0.5-0.3-0.7-0.5
				c-0.2-0.2-0.3-0.5-0.4-0.8C173,50.3,173,50,173,49.6L173,49.6z M174,49.7c0,0.2,0,0.4,0.1,0.6c0,0.2,0.1,0.4,0.2,0.5
				c0.1,0.1,0.2,0.3,0.4,0.3c0.1,0.1,0.3,0.1,0.5,0.1c0.2,0,0.4,0,0.5-0.1c0.1-0.1,0.3-0.2,0.4-0.3c0.1-0.1,0.2-0.3,0.2-0.5
				c0-0.2,0.1-0.4,0.1-0.6v-0.1c0-0.2,0-0.4-0.1-0.6c0-0.2-0.1-0.4-0.2-0.5c-0.1-0.1-0.2-0.3-0.4-0.3c-0.1-0.1-0.3-0.1-0.5-0.1
				s-0.4,0-0.5,0.1s-0.3,0.2-0.4,0.3c-0.1,0.1-0.2,0.3-0.2,0.5C174,49.2,174,49.4,174,49.7L174,49.7z"/>
			<path class="st8" d="M179.4,52h-1.1v-6.8h1.1V52z"/>
		</g>
		<g class="st7">
			<path class="st8" d="M194.3,46.5h-2V52h-1.1v-5.5h-2v-0.9h5.1V46.5z"/>
			<path class="st8" d="M197.1,52c0-0.1-0.1-0.1-0.1-0.2c0-0.1,0-0.2,0-0.2c-0.1,0.1-0.1,0.1-0.2,0.2s-0.2,0.1-0.3,0.2
				c-0.1,0-0.2,0.1-0.3,0.1c-0.1,0-0.3,0-0.4,0c-0.2,0-0.5,0-0.7-0.1c-0.2-0.1-0.4-0.2-0.5-0.3c-0.1-0.1-0.3-0.3-0.3-0.5
				c-0.1-0.2-0.1-0.4-0.1-0.6c0-0.3,0-0.5,0.1-0.7s0.2-0.4,0.4-0.5c0.2-0.1,0.4-0.2,0.7-0.3c0.3-0.1,0.6-0.1,0.9-0.1h0.7v-0.3
				c0-0.2-0.1-0.4-0.2-0.6c-0.1-0.1-0.3-0.2-0.6-0.2c-0.1,0-0.2,0-0.3,0c-0.1,0-0.2,0.1-0.3,0.1c-0.1,0.1-0.1,0.1-0.2,0.2
				s-0.1,0.2-0.1,0.3h-1.1c0-0.2,0-0.4,0.1-0.5c0.1-0.2,0.2-0.3,0.4-0.5c0.2-0.1,0.4-0.2,0.6-0.3c0.2-0.1,0.5-0.1,0.8-0.1
				c0.3,0,0.5,0,0.7,0.1c0.2,0.1,0.4,0.2,0.6,0.3c0.2,0.1,0.3,0.3,0.4,0.5c0.1,0.2,0.1,0.4,0.1,0.7v2.1c0,0.4,0.1,0.8,0.2,1V52
				H197.1z M195.9,51.2c0.1,0,0.2,0,0.3,0c0.1,0,0.2-0.1,0.3-0.1c0.1-0.1,0.2-0.1,0.2-0.2c0.1-0.1,0.1-0.1,0.2-0.2v-0.9h-0.6
				c-0.4,0-0.7,0.1-0.9,0.2s-0.3,0.3-0.3,0.6c0,0.1,0,0.2,0,0.3c0,0.1,0.1,0.2,0.1,0.2c0.1,0.1,0.1,0.1,0.2,0.1
				C195.7,51.2,195.8,51.2,195.9,51.2z"/>
			<path class="st8" d="M200.8,48.8l0.9-1.6h1.2l-1.5,2.3L203,52h-1.2l-0.9-1.6l-0.9,1.6h-1.2l1.5-2.4l-1.5-2.3h1.2L200.8,48.8z"/>
			<path class="st8" d="M203.7,46c0-0.2,0.1-0.3,0.2-0.4c0.1-0.1,0.3-0.2,0.4-0.2s0.3,0.1,0.4,0.2s0.2,0.2,0.2,0.4
				c0,0.2-0.1,0.3-0.2,0.4c-0.1,0.1-0.3,0.2-0.4,0.2s-0.3-0.1-0.4-0.2C203.7,46.3,203.7,46.2,203.7,46z M204.8,52h-1.1v-4.8h1.1V52z
				"/>
		</g>
	</g>
</g>
</svg>
